<?xml version="1.0" encoding="UTF-8" standalone="no"?>
<svg
   xmlns:dc="http://purl.org/dc/elements/1.1/"
   xmlns:cc="http://creativecommons.org/ns#"
   xmlns:rdf="http://www.w3.org/1999/02/22-rdf-syntax-ns#"
   xmlns:svg="http://www.w3.org/2000/svg"
   xmlns="http://www.w3.org/2000/svg"
   width="210mm"
   height="297mm"
   viewBox="0 0 744.09448819 1052.3622047"
   id="svg2"
   version="1.1">
  <defs
     id="defs4" />
  <metadata
     id="metadata7">
    <rdf:RDF>
      <cc:Work
         rdf:about="">
        <dc:format>image/svg+xml</dc:format>
        <dc:type
           rdf:resource="http://purl.org/dc/dcmitype/StillImage" />
        <dc:title></dc:title>
      </cc:Work>
    </rdf:RDF>
  </metadata>
  <g
     id="layer1">
    <path
       id="path4187"
       d="m 150.03649,908.29124 c -21.28521,-7.1386 -38.90806,-13.1915 -39.16188,-13.4507 -0.25381,-0.2593 1.13358,-2.67 3.08311,-5.3572 6.10381,-8.4132 22.45356,-33.61724 30.50729,-47.02856 35.42721,-58.99453 62.59778,-119.86095 77.07098,-172.65134 26.32835,-96.03158 16.31822,-172.43549 -29.97343,-228.77723 -27.48408,-33.45098 -68.25315,-59.33418 -121.754258,-77.29853 -7.660715,-2.57227 -14.029821,-4.76222 -14.15357,-4.86655 -0.325395,-0.27432 6.636629,-17.22195 14.241788,-34.66873 4.861032,-11.15155 6.965368,-15.22489 8.085337,-15.65071 2.221272,-0.84453 17.822983,-2.15948 25.520803,-2.15097 22.65348,0.0251 49.16143,4.85527 72.38112,13.18911 11.39185,4.08868 32.31143,14.32827 42.79744,20.94823 38.02437,24.0053 69.64559,57.68484 97.3741,103.71243 6.36944,10.57287 21.65334,40.21474 26.45807,51.31323 l 2.26926,5.24181 2.84935,-5.50625 c 7.25011,-14.0105 21.34929,-26.70554 36.80536,-33.13992 31.7653,-13.22393 71.834,-9.83008 123.15307,10.43115 6.82931,2.69627 11.89083,4.3316 12.14286,3.92324 0.23769,-0.38514 23.39202,-58.74835 51.45407,-129.69604 28.06204,-70.94768 51.36561,-128.9931 51.78571,-128.98981 0.42009,0.003 22.75724,7.55685 49.63809,16.78571 26.88085,9.22886 49.50386,16.77974 50.27335,16.77974 1.05294,0 0.0721,1.38894 -3.96478,5.61427 -38.91364,40.73045 -72.92026,124.50801 -94.41595,232.60001 -15.71064,79.00161 -24.99514,170.19038 -28.25402,277.5 -0.39967,13.16072 -0.72679,47.79465 -0.72692,76.96429 -2e-4,42.75582 -0.17837,53.03572 -0.91921,53.03572 -0.95288,0 -102.41947,-13.4492 -103.77698,-13.7555 -0.47639,-0.1074 0.40349,-4.5066 2.32045,-11.6017 6.57864,-24.34868 13.16521,-56.4339 16.93589,-82.49995 3.82807,-26.46289 5.4256,-47.81149 5.42517,-72.5 -4.7e-4,-27.04295 -2.04081,-45.90511 -7.10015,-65.63798 -6.43863,-25.1125 -15.90283,-42.77747 -30.46718,-56.86715 -9.56357,-9.25189 -21.07526,-16.29116 -32.71722,-20.00623 -1.53944,-0.49126 -3.86165,-1.52018 -5.16047,-2.28651 -6.07242,-3.58281 -16.80087,-4.39889 -26.39058,-2.00745 -7.99584,1.99397 -21.34148,8.89991 -30.64997,15.86038 -8.83723,6.60808 -27.0547,24.426 -36.0207,35.23066 -40.06021,48.27541 -82.72539,125.09272 -127.82664,230.14787 -8.1356,18.95036 -23.96846,57.39866 -27.22061,66.10216 -0.84408,2.2589 -1.91338,4.0817 -2.37623,4.0507 -0.46284,-0.031 -18.2567,-5.8971 -39.54192,-13.0357 z"
       style="fill:#dbdbdb;fill-opacity:1;stroke:#000000;stroke-opacity:1;stroke-width:8;stroke-miterlimit:4;stroke-dasharray:none" />
    <path
       id="path4171"
       d="m 387.65284,393.84977 c -1.54772,-4.59609 -56.66036,-364.051206 -55.92988,-364.785386 0.71257,-0.7162 240.04891,3.702575 240.78815,4.445581 0.58491,0.587876 -60.9797,356.418525 -61.86658,357.575985 -0.32172,0.41988 -103.24555,4.39183 -116.97275,4.51413 -3.09121,0.0275 -5.67309,-0.72326 -6.01894,-1.75031 z"
       style="fill:#dbdbdb;fill-opacity:1;stroke:#000000;stroke-width:8;stroke-miterlimit:4;stroke-dasharray:none;stroke-opacity:1" />
    <path
       id="path4225"
       d="m 328.07867,32.148416 -53.06922,77.400724 67.11694,268.41721 46.04536,17.75248 z"
       style="fill:#878c99;fill-opacity:1;fill-rule:evenodd;stroke:#000000;stroke-width:5.12571669;stroke-linecap:butt;stroke-linejoin:miter;stroke-miterlimit:4;stroke-dasharray:none;stroke-opacity:1" />
  </g>
</svg>
